<mxfile host="app.diagrams.net" agent="Mozilla/5.0 (Windows NT 10.0; Win64; x64) AppleWebKit/537.36 (KHTML, like Gecko) Chrome/135.0.0.0 Safari/537.36 OPR/120.0.0.0" version="28.1.2">
  <diagram id="LkDLDI9xGDb-Azv0w2N5" name="Página-1">
    <mxGraphModel dx="1001" dy="539" grid="1" gridSize="10" guides="1" tooltips="1" connect="1" arrows="1" fold="1" page="1" pageScale="1" pageWidth="827" pageHeight="1169" math="0" shadow="0">
      <root>
        <mxCell id="0" />
        <mxCell id="1" parent="0" />
        <mxCell id="djJrGv_C1Vz-6MasdIXq-7" value="" style="edgeStyle=orthogonalEdgeStyle;rounded=0;orthogonalLoop=1;jettySize=auto;html=1;strokeColor=#736CA8;fontColor=#1A1A1A;" edge="1" parent="1" source="djJrGv_C1Vz-6MasdIXq-1" target="djJrGv_C1Vz-6MasdIXq-5">
          <mxGeometry relative="1" as="geometry" />
        </mxCell>
        <mxCell id="djJrGv_C1Vz-6MasdIXq-1" value="" style="points=[[0.35,0,0],[0.98,0.51,0],[1,0.71,0],[0.67,1,0],[0,0.795,0],[0,0.65,0]];verticalLabelPosition=bottom;sketch=0;html=1;verticalAlign=top;aspect=fixed;align=center;pointerEvents=1;shape=mxgraph.cisco19.user;fillColor=#005073;strokeColor=none;fontColor=#1A1A1A;" vertex="1" parent="1">
          <mxGeometry x="80" y="150" width="50" height="50" as="geometry" />
        </mxCell>
        <mxCell id="djJrGv_C1Vz-6MasdIXq-4" value="&lt;span style=&quot;font-family: Inter, sans-serif;&quot;&gt;&lt;font style=&quot;font-size: 8px; color: light-dark(rgb(107, 114, 128), rgb(255, 255, 255));&quot;&gt;acessando via browser&lt;/font&gt;&lt;/span&gt;" style="rounded=1;whiteSpace=wrap;html=1;strokeColor=#D0CEE2;fontColor=#1A1A1A;fillColor=#5D7F99;" vertex="1" parent="1">
          <mxGeometry x="77.5" y="200" width="55" height="30" as="geometry" />
        </mxCell>
        <mxCell id="djJrGv_C1Vz-6MasdIXq-9" value="" style="edgeStyle=orthogonalEdgeStyle;rounded=0;orthogonalLoop=1;jettySize=auto;html=1;strokeColor=#736CA8;fontColor=#1A1A1A;" edge="1" parent="1" source="djJrGv_C1Vz-6MasdIXq-5" target="djJrGv_C1Vz-6MasdIXq-8">
          <mxGeometry relative="1" as="geometry" />
        </mxCell>
        <mxCell id="djJrGv_C1Vz-6MasdIXq-5" value="Requisição&amp;nbsp;&lt;div&gt;HTTP/s&lt;/div&gt;" style="text;html=1;align=center;verticalAlign=middle;resizable=0;points=[];autosize=1;strokeColor=none;fillColor=none;fontColor=#1A1A1A;" vertex="1" parent="1">
          <mxGeometry x="190" y="160" width="90" height="40" as="geometry" />
        </mxCell>
        <mxCell id="djJrGv_C1Vz-6MasdIXq-11" value="" style="edgeStyle=orthogonalEdgeStyle;rounded=0;orthogonalLoop=1;jettySize=auto;html=1;strokeColor=#736CA8;fontColor=#1A1A1A;" edge="1" parent="1" source="djJrGv_C1Vz-6MasdIXq-8" target="djJrGv_C1Vz-6MasdIXq-10">
          <mxGeometry relative="1" as="geometry" />
        </mxCell>
        <mxCell id="djJrGv_C1Vz-6MasdIXq-8" value="Amazon EC2" style="sketch=0;outlineConnect=0;fontColor=#232F3E;gradientColor=none;strokeColor=#ffffff;fillColor=#232F3E;dashed=0;verticalLabelPosition=middle;verticalAlign=bottom;align=center;html=1;whiteSpace=wrap;fontSize=10;fontStyle=1;spacing=3;shape=mxgraph.aws4.productIcon;prIcon=mxgraph.aws4.ec2;" vertex="1" parent="1">
          <mxGeometry x="380" y="140" width="80" height="100" as="geometry" />
        </mxCell>
        <mxCell id="djJrGv_C1Vz-6MasdIXq-10" value="" style="outlineConnect=0;dashed=0;verticalLabelPosition=bottom;verticalAlign=top;align=center;html=1;shape=mxgraph.aws3.volume;fillColor=#E05243;gradientColor=none;strokeColor=#D0CEE2;fontColor=#1A1A1A;" vertex="1" parent="1">
          <mxGeometry x="560" y="142.5" width="52.5" height="75" as="geometry" />
        </mxCell>
        <mxCell id="djJrGv_C1Vz-6MasdIXq-12" value="Amazon EBS" style="text;html=1;align=center;verticalAlign=middle;resizable=0;points=[];autosize=1;strokeColor=none;fillColor=none;fontColor=#1A1A1A;" vertex="1" parent="1">
          <mxGeometry x="541.25" y="217.5" width="90" height="30" as="geometry" />
        </mxCell>
      </root>
    </mxGraphModel>
  </diagram>
</mxfile>
